<svg width="44" height="44" viewBox="0 0 44 44" fill="none" xmlns="http://www.w3.org/2000/svg">
<path d="M0 25.8487V43.1791H44V25.8487H0ZM40.3318 39.5078H3.67026V29.519H40.3308V39.5078H40.3318ZM36.8062 16.2334H36.6544V9.58756H34.1548V7.0706H36.8062V0.820801H25.0823V7.0706H27.7316V9.58756H7.34565V16.2334H7.30666L1.83359 24.8288H42.1644L36.8062 16.2334ZM27.2227 2.96221H34.6638V4.93022H27.2227V2.96221ZM9.48808 11.73H34.5129V14.5455H9.48808V11.73ZM15.2803 16.9907L15.0135 18.3974H12.9234L13.3348 16.9907H15.2803ZM9.93545 18.8643H12.0738L11.6141 20.271H9.33109L9.93545 18.8643ZM7.34975 18.3964L8.14701 16.9896H10.0924L9.43986 18.3964H7.34975ZM10.1366 18.3964L10.7409 16.9896H12.6863L12.2267 18.3964H10.1366ZM7.084 18.8643H9.22233L8.56975 20.271H6.28674L7.084 18.8643ZM6.82851 24.0223H4.15969L4.95695 22.6156H7.48109L6.82851 24.0223ZM5.2227 22.1477L6.01996 20.741H8.3512L7.69861 22.1477H5.2227ZM10.3879 24.0223H7.71811L8.32247 22.6156H10.8466L10.3879 24.0223ZM8.5246 22.1477L9.12896 20.741H11.4602L11.0005 22.1477H8.5246ZM13.9464 24.0223H11.2776L11.689 22.6156H14.2131L13.9464 24.0223ZM14.3024 22.1477H11.8255L12.2369 20.741H14.5682L14.3024 22.1477ZM12.3744 20.271L12.7859 18.8643H14.9242L14.6574 20.271H12.3744ZM17.5058 24.0223H14.837L15.0555 22.6156H17.5797L17.5058 24.0223ZM17.6043 22.1477H15.1274L15.3459 20.741H17.6772L17.6043 22.1477ZM17.7018 20.271H15.4188L15.6373 18.8643H17.7757L17.7018 20.271ZM17.8003 18.3964H15.7102L15.9287 16.9896H17.8742L17.8003 18.3964ZM37.2905 36.9601H6.70948V32.0678H14.6605V34.3836H29.3385V32.0678H37.2905V36.9601Z" fill="#4CAF50"/>
</svg>
