<svg width="44" height="51" viewBox="0 0 44 51" fill="none" xmlns="http://www.w3.org/2000/svg">
<path d="M15.9994 46.7468C14.2498 47.2156 12.4514 46.1773 11.9825 44.4277C11.9069 44.1455 11.8711 43.862 11.8705 43.583C11.6286 43.722 11.3652 43.8327 11.083 43.9083C9.33339 44.3772 7.53494 43.3388 7.06612 41.5892C6.59731 39.8396 7.63565 38.0411 9.38528 37.5723C10.2601 37.3379 11.1471 37.4803 11.8741 37.9L15.4315 31.7383C16.0655 32.4629 16.8107 33.0752 17.6556 33.563C18.5004 34.0508 19.4033 34.39 20.3478 34.5767L16.7904 40.7384C17.5173 41.1581 18.0842 41.8551 18.3186 42.7299C18.7874 44.4796 17.749 46.278 15.9994 46.7468Z" fill="#4CAF50"/>
<path d="M28.0784 29.031C27.701 29.0622 27.3564 29.2576 27.1359 29.5654C25.8287 31.39 23.6261 32.372 21.3874 32.1284C20.5242 32.0345 19.7029 31.7653 18.9463 31.3285C18.1897 30.8917 17.546 30.315 17.033 29.6144C15.7026 27.7974 15.4519 25.3989 16.3784 23.3546C16.5347 23.0097 16.5316 22.6136 16.37 22.2712C14.7032 18.7413 14.8714 14.6193 16.8197 11.2447C20.0958 5.56989 27.3783 3.61863 33.0529 6.89491C38.7276 10.1712 40.679 17.4536 37.4027 23.1283C35.4545 26.5029 31.9686 28.7095 28.0784 29.031Z" fill="#4CAF50"/>
</svg>
