<svg width="44" height="44" viewBox="0 0 44 44" fill="none" xmlns="http://www.w3.org/2000/svg">
<path d="M21.9996 0C9.84971 0 0 9.85 0 21.9996C0 34.1493 9.84971 44 21.9996 44C34.1496 44 44 34.1493 44 21.9996C44 9.85 34.1496 0 21.9996 0ZM31.5107 26.184H22.1837C22.1522 26.184 22.1228 26.1763 22.0916 26.1752C22.0604 26.1766 22.0312 26.184 21.9995 26.184C21.1592 26.184 20.4779 25.5027 20.4779 24.6624V9.13001C20.4779 8.28974 21.1592 7.60846 21.9995 7.60846C22.8398 7.60846 23.521 8.28974 23.521 9.13001V23.1409H31.5101C32.3504 23.1409 33.0316 23.8221 33.0316 24.6624C33.0316 25.5027 32.351 26.184 31.5107 26.184Z" fill="#4CAF50"/>
</svg>
