<svg width="44" height="44" viewBox="0 0 44 44" fill="none" xmlns="http://www.w3.org/2000/svg">
<g clip-path="url(#clip0)">
<path d="M23.8309 32.4273C29.4673 32.4273 34.0532 27.8428 34.0532 22.2064C34.0532 16.57 29.4675 11.9834 23.8309 11.9834C18.1949 11.9834 13.6094 16.5693 13.6094 22.2064C13.6094 27.8428 18.1941 32.4273 23.8309 32.4273Z" fill="#4CAF50"/>
<path d="M23.8307 35.1712C30.9918 35.1712 36.795 29.3664 36.795 22.2068C36.795 15.0454 30.9916 9.2417 23.8307 9.2417C16.6703 9.2417 10.8662 15.0454 10.8662 22.2068C10.8662 29.3663 16.6703 35.1712 23.8307 35.1712ZM23.8307 11.228C29.8836 11.228 34.8094 16.154 34.8094 22.2068C34.8094 28.2598 29.8837 33.1848 23.8307 33.1848C17.7777 33.1848 12.8527 28.2599 12.8527 22.2068C12.8527 16.154 17.7777 11.228 23.8307 11.228Z" fill="#4CAF50"/>
<path d="M44 36.3773L43.2435 7.27874C43.2435 6.65218 42.7354 6.14404 42.1088 6.14404C41.9412 6.14404 41.7838 6.18245 41.6413 6.24849V6.23773C41.6413 6.23773 41.6117 6.25664 41.5695 6.28544C41.461 6.34538 41.3636 6.41913 41.2793 6.50933C40.449 7.19087 37.8015 9.96869 37.5798 13.7237C37.2436 19.4513 40.0256 21.7708 40.9734 23.8953L40.2171 36.3767C40.2171 37.0031 41.4817 37.5114 42.1081 37.5114C42.7354 37.512 44 37.0038 44 36.3773Z" fill="#4CAF50"/>
<path d="M1.98048 18.6505L3.9387 19.6287C4.16186 19.7406 4.40786 19.8222 4.66491 19.8828L3.90844 36.9043C3.90844 37.4302 5.17348 37.8557 5.7996 37.8557C6.42601 37.8557 7.69076 37.4302 7.69076 36.9043L6.9343 19.7957C7.20066 19.7119 7.45728 19.6096 7.68189 19.4722L9.1327 18.5887C10.1795 17.9501 10.9684 16.5455 10.9684 15.3192V7.69256C10.9684 7.066 10.4601 6.55786 9.83374 6.55786C9.20762 6.55786 8.69904 7.066 8.69904 7.69256V14.5626H8.06885V7.69256C8.06885 7.066 7.56056 6.55786 6.93415 6.55786C6.30803 6.55786 5.79946 7.066 5.79946 7.69256V14.5626H5.16708V7.69256C5.16708 7.066 4.6588 6.55786 4.03239 6.55786C3.40627 6.55786 2.89769 7.066 2.89769 7.69256V14.5626H2.26939V7.93768C2.26939 7.31127 1.76111 6.80298 1.1347 6.80298C0.508576 6.80298 0 7.31127 0 7.93768V15.4459C0 16.7079 0.851749 18.0862 1.98048 18.6505Z" fill="#4CAF50"/>
</g>
<defs>
<clipPath id="clip0">
<rect width="43.9999" height="44" fill="white"/>
</clipPath>
</defs>
</svg>
