<svg width="44" height="44" viewBox="0 0 44 44" fill="none" xmlns="http://www.w3.org/2000/svg">
<path d="M40.8757 20.2166H36.4914H35.9049C34.6088 20.2166 33.5576 21.2677 33.5576 22.5682V22.8231C33.5576 24.1249 34.6088 25.1767 35.9068 25.1767H40.2955H40.8757C42.1743 25.1767 43.2286 24.1205 43.2286 22.8231L43.2261 22.5651C43.2286 21.2677 42.1743 20.2166 40.8757 20.2166Z" fill="#4CAF50"/>
<path d="M40.8779 14.3498H39.8425V2.97268C39.8425 1.33752 38.505 0 36.8692 0H17.2528C15.6177 0 14.2802 1.33815 14.2802 2.97268V11.1353C10.3235 13.3721 6.24248 15.7086 6.23369 15.7143C4.0183 16.6261 0.772461 19.568 0.772461 26.5149C0.772461 27.1353 0.813277 27.708 0.87042 28.2612C0.88863 28.4232 0.908725 28.579 0.930703 28.7353C0.987846 29.1416 1.05943 29.5303 1.14483 29.8995C1.1756 30.0314 1.19946 30.1689 1.23274 30.2951C1.34766 30.7221 1.48078 31.1228 1.63023 31.5039C1.70558 31.6929 1.78722 31.865 1.86948 32.0421C1.95739 32.2286 2.04593 32.4119 2.14075 32.5834C2.25064 32.79 2.36053 32.989 2.48109 33.178C2.50998 33.222 2.54138 33.2622 2.57089 33.3067C5.4318 37.6314 10.7097 37.6509 10.7097 37.6509H14.2802V41.0286C14.2802 42.6618 15.6177 43.9994 17.2528 43.9994H36.8685C38.5043 43.9994 39.8418 42.6612 39.8418 41.0286V36.9086H40.2952V36.9061H40.8736C42.174 36.9061 43.2283 35.8543 43.2258 34.5538L43.2283 34.2976C43.2258 32.9991 42.174 31.9504 40.8754 31.9504H40.2952H36.4905H35.904C34.6054 31.9504 33.5568 33.0016 33.5568 34.2995V34.5601C33.5568 35.8549 34.6079 36.9105 35.9059 36.9105H37.7734V38.5017H16.348V17.1573C17.4243 16.4747 18.4208 15.8179 18.9891 15.3777C21.8682 13.151 24.601 11.3777 24.9709 9.76954C25.4525 7.68289 23.8506 5.92465 21.072 7.36829C20.1966 7.82292 18.4001 8.81947 16.348 9.97174V4.71083L37.7734 4.71397V14.3485H36.4905V14.351H35.9072C34.6079 14.351 33.5536 15.4022 33.5536 16.7039V16.9589C33.5536 18.26 34.6079 19.3086 35.904 19.3086H36.4874H40.2921H40.8767C42.174 19.3086 43.2258 18.2575 43.2258 16.9589V16.697C43.2283 15.4041 42.1772 14.3498 40.8779 14.3498ZM27.0582 39.5454C27.882 39.5454 28.5464 40.2104 28.5464 41.0323C28.5464 41.8562 27.8814 42.5187 27.0582 42.5187C26.2374 42.5187 25.5743 41.8543 25.5743 41.0323C25.5756 40.2129 26.2406 39.5454 27.0582 39.5454ZM30.1998 2.86217H23.9228C23.7257 2.86217 23.5624 2.70204 23.5624 2.50424C23.5624 2.3033 23.7257 2.14317 23.9228 2.14317H30.1998C30.3969 2.14317 30.5577 2.30267 30.5577 2.50424C30.5577 2.70141 30.3969 2.86217 30.1998 2.86217Z" fill="#4CAF50"/>
<path d="M40.8754 26.0835H40.2952H35.9046C34.6085 26.0835 33.5542 27.1378 33.5542 28.4358V28.6932C33.5542 29.9924 34.606 31.0436 35.9046 31.0436H36.4879H40.2927H40.8741C42.1746 31.0436 43.2233 29.9924 43.2264 28.6932V28.4358C43.2258 27.1378 42.1771 26.0835 40.8754 26.0835Z" fill="#4CAF50"/>
</svg>
