<svg width="44" height="42" viewBox="0 0 44 42" fill="none" xmlns="http://www.w3.org/2000/svg">
<path opacity="0.9" d="M23.1 0.100098C15.4 0.100098 8.58 4.2801 5.06 10.6601L0 5.6001V19.9001H14.3L8.14 13.7401C11 8.2401 16.5 4.5001 23.1 4.5001C32.12 4.5001 39.6 11.9801 39.6 21.0001C39.6 30.0201 32.12 37.5001 23.1 37.5001C15.84 37.5001 9.9 32.8801 7.48 26.5001H2.86C5.28 35.3001 13.42 41.9001 23.1 41.9001C34.76 41.9001 44 32.4401 44 21.0001C44 9.5601 34.54 0.100098 23.1 0.100098ZM19.8 11.1001V22.3201L30.14 28.4801L31.9 25.6201L23.1 20.3401V11.1001H19.8Z" fill="#4CAF50"/>
</svg>
