<svg width="25" height="25" viewBox="0 0 25 25" fill="none" xmlns="http://www.w3.org/2000/svg">
<path d="M18.1006 0H6.89891C3.09485 0 0 3.095 0 6.89906V18.1008C0 21.905 3.09485 24.9999 6.89891 24.9999H18.1006C21.905 24.9999 24.9999 21.9049 24.9999 18.1008V6.89906C25 3.095 21.905 0 18.1006 0ZM22.7819 18.1008C22.7819 20.6819 20.6819 22.7817 18.1008 22.7817H6.89891C4.31792 22.7819 2.21811 20.6819 2.21811 18.1008V6.89906C2.21811 4.31806 4.31792 2.21811 6.89891 2.21811H18.1006C20.6818 2.21811 22.7817 4.31806 22.7817 6.89906V18.1008H22.7819Z" fill="#C4C4C4"/>
<path d="M12.4999 6.0583C8.94786 6.0583 6.05811 8.94805 6.05811 12.5001C6.05811 16.0521 8.94786 18.9417 12.4999 18.9417C16.052 18.9417 18.9418 16.0521 18.9418 12.5001C18.9418 8.94805 16.052 6.0583 12.4999 6.0583ZM12.4999 16.7234C10.1711 16.7234 8.27621 14.8288 8.27621 12.5C8.27621 10.171 10.1709 8.27626 12.4999 8.27626C14.8289 8.27626 16.7237 10.171 16.7237 12.5C16.7237 14.8288 14.8288 16.7234 12.4999 16.7234Z" fill="#C4C4C4"/>
<path d="M19.2121 4.17754C18.7847 4.17754 18.3649 4.35055 18.0631 4.65369C17.7598 4.95535 17.5854 5.37531 17.5854 5.80415C17.5854 6.23165 17.7599 6.65147 18.0631 6.95461C18.3647 7.25627 18.7847 7.43076 19.2121 7.43076C19.6409 7.43076 20.0594 7.25627 20.3625 6.95461C20.6657 6.65147 20.8387 6.2315 20.8387 5.80415C20.8387 5.37531 20.6657 4.95535 20.3625 4.65369C20.0609 4.35055 19.6409 4.17754 19.2121 4.17754Z" fill="#C4C4C4"/>
</svg>
