<svg width="34" height="44" viewBox="0 0 34 44" fill="none" xmlns="http://www.w3.org/2000/svg">
<path d="M0.779785 0V44H33.2202V0H0.779785ZM25.0225 4.6382C25.3371 4.6382 25.5978 4.89888 25.5978 5.21348V7.60449C25.5978 8.46742 26.0292 8.99775 26.7124 8.99775C27.3416 8.99775 27.827 8.58427 27.827 7.60449V5.21348C27.827 4.89888 28.0877 4.6382 28.4023 4.6382H28.4382C28.7528 4.6382 29.0135 4.89888 29.0135 5.21348V7.64045C29.0135 9.24944 27.8539 10.0494 26.7393 10.0494C25.6068 10.0494 24.4382 9.53708 24.4382 7.64045V5.21348C24.4472 4.89888 24.7079 4.6382 25.0225 4.6382ZM18.8292 4.6382C18.8292 4.6382 19.2157 4.5573 19.5303 4.87191L21.9753 8.08989V5.23146C21.9753 4.90787 22.245 4.6382 22.5686 4.6382C22.8921 4.6382 23.1618 4.90787 23.1618 5.23146V9.42023C23.1618 9.74382 22.8921 10.0135 22.5686 10.0135C22.5686 10.0135 22.1191 10.1034 21.7955 9.77978L19.4225 6.63371V9.39326C19.4225 9.71685 19.1528 9.98652 18.8292 9.98652C18.5056 9.98652 18.236 9.71685 18.236 9.39326V5.23146C18.236 4.90787 18.4966 4.6382 18.8292 4.6382ZM10.5506 39.4517H5.58877V34.4899H10.5506V39.4517ZM10.5506 29.7798H5.58877V24.818H10.5506V29.7798ZM10.5506 20.1079H5.58877V15.1461H10.5506V20.1079ZM11.2877 10.0225C10.9641 10.0225 10.6944 9.75281 10.6944 9.42921V6.63371L9.38203 9.25843C9.28316 9.44719 9.09439 9.57303 8.87866 9.57303C8.66293 9.57303 8.46518 9.45618 8.37529 9.25843L7.06293 6.63371V9.42921C7.06293 9.75281 6.79327 10.0225 6.46967 10.0225C6.14608 10.0225 5.87641 9.75281 5.87641 9.42921V5.62697C5.87641 5.08764 6.31686 4.6382 6.86518 4.6382C7.24271 4.6382 7.59327 4.85393 7.75507 5.19551L8.88765 7.56854L10.0202 5.19551C10.182 4.85393 10.5326 4.6382 10.9101 4.6382C11.4494 4.6382 11.8989 5.07865 11.8989 5.62697V9.42921C11.8809 9.75281 11.6112 10.0225 11.2877 10.0225ZM13.8045 4.6382H16.5461C16.8427 4.6382 17.0854 4.8809 17.0854 5.17753C17.0854 5.47416 16.8427 5.71685 16.5461 5.71685H14.3978V6.83146H16.3034C16.582 6.83146 16.8068 7.05618 16.8068 7.33483C16.8068 7.61348 16.582 7.8382 16.3034 7.8382H14.3978V8.95281H16.636C16.9236 8.95281 17.1573 9.18652 17.1573 9.47416C17.1573 9.7618 16.9236 9.99551 16.636 9.99551H13.8045C13.4809 9.99551 13.2112 9.72584 13.2112 9.40225V5.23146C13.2112 4.90787 13.4719 4.6382 13.8045 4.6382ZM28.4292 37.6719H14.9461C14.5596 37.6719 14.245 37.3573 14.245 36.9708C14.245 36.5843 14.5596 36.2697 14.9461 36.2697H28.4292C28.8157 36.2697 29.1304 36.5843 29.1304 36.9708C29.1304 37.3573 28.8157 37.6719 28.4292 37.6719ZM28.4292 28H14.9461C14.5596 28 14.245 27.6854 14.245 27.2989C14.245 26.9124 14.5596 26.5978 14.9461 26.5978H28.4292C28.8157 26.5978 29.1304 26.9124 29.1304 27.2989C29.1304 27.6854 28.8157 28 28.4292 28ZM28.4292 18.364H14.9461C14.5596 18.364 14.245 18.0494 14.245 17.6629C14.245 17.2764 14.5596 16.9618 14.9461 16.9618H28.4292C28.8157 16.9618 29.1304 17.2764 29.1304 17.6629C29.1304 18.0494 28.8157 18.364 28.4292 18.364Z" fill="#4CAF50"/>
</svg>
