<svg width="26" height="40" viewBox="0 0 26 40" fill="none" xmlns="http://www.w3.org/2000/svg">
<path fill-rule="evenodd" clip-rule="evenodd" d="M24 27V13C24 6.92487 19.0751 2 13 2C6.92487 2 2 6.92487 2 13V27C2 33.0751 6.92487 38 13 38C19.0751 38 24 33.0751 24 27ZM13 0C5.8203 0 0 5.8203 0 13V27C0 34.1797 5.8203 40 13 40C20.1797 40 26 34.1797 26 27V13C26 5.8203 20.1797 0 13 0Z" fill="#828282"/>
<path d="M15.8886 10.2856C15.8886 11.8636 14.5952 13.1428 12.9997 13.1428C11.4042 13.1428 10.1108 11.8636 10.1108 10.2856C10.1108 8.70765 11.4042 7.42847 12.9997 7.42847C14.5952 7.42847 15.8886 8.70765 15.8886 10.2856Z" fill="#828282"/>
</svg>
