<svg width="44" height="38" viewBox="0 0 44 38" fill="none" xmlns="http://www.w3.org/2000/svg">
<path d="M26.5521 6.84121C28.5865 8.11679 30.0131 10.2753 30.2729 12.7809C31.1026 13.1686 32.0234 13.3915 32.9997 13.3915C36.564 13.3915 39.4528 10.5027 39.4528 6.93895C39.4528 3.3747 36.564 0.48584 32.9997 0.48584C29.4695 0.486938 26.6059 3.32418 26.5521 6.84121ZM22.3245 20.0538C25.8888 20.0538 28.7776 17.1644 28.7776 13.6007C28.7776 10.037 25.8882 7.14816 22.3245 7.14816C18.7608 7.14816 15.8703 10.0376 15.8703 13.6013C15.8703 17.165 18.7608 20.0538 22.3245 20.0538ZM25.0618 20.4937H19.5861C15.0302 20.4937 11.3237 24.2007 11.3237 28.7567V35.453L11.3407 35.5579L11.802 35.7023C16.1498 37.0608 19.9271 37.5138 23.0362 37.5138C29.1087 37.5138 32.6285 35.7825 32.8454 35.6721L33.2765 35.4541H33.3226V28.7567C33.3242 24.2007 29.6178 20.4937 25.0618 20.4937ZM35.7381 13.8319H30.3047C30.246 16.0058 29.318 17.9634 27.8502 19.3713C31.8999 20.5755 34.8629 24.3308 34.8629 28.7665V30.8301C40.2276 30.6335 43.3191 29.113 43.5228 29.0109L43.9539 28.7923H44V22.0938C44 17.5384 40.2935 13.8319 35.7381 13.8319ZM11.0014 13.3926C12.2638 13.3926 13.4383 13.0242 14.4333 12.3965C14.7496 10.3335 15.8555 8.53082 17.4353 7.30301C17.4419 7.18221 17.4534 7.0625 17.4534 6.9406C17.4534 3.37634 14.564 0.487487 11.0014 0.487487C7.43657 0.487487 4.54826 3.37634 4.54826 6.9406C4.54826 10.5032 7.43657 13.3926 11.0014 13.3926ZM16.7967 19.3713C15.336 17.9705 14.4113 16.0234 14.3438 13.8627C14.1423 13.8478 13.9429 13.8319 13.7376 13.8319H8.26242C3.70648 13.8319 0 17.5384 0 22.0938V28.7912L0.0170223 28.8945L0.478273 29.04C3.96621 30.1289 7.0791 30.6308 9.7829 30.7889V28.7665C9.784 24.3308 12.7459 20.5766 16.7967 19.3713Z" fill="#4CAF50"/>
</svg>
