<svg width="30" height="44" viewBox="0 0 30 44" fill="none" xmlns="http://www.w3.org/2000/svg">
<path d="M27.3284 0H2.67125C1.30817 0 0.199219 1.10895 0.199219 2.47203V41.528C0.199219 42.891 1.30817 44 2.67125 44H27.3284C28.6914 44 29.8004 42.891 29.8004 41.528V2.47203C29.8004 1.10895 28.6914 0 27.3284 0ZM13.0016 2.25943H16.998C17.3393 2.25943 17.616 2.53605 17.616 2.87744C17.616 3.21883 17.3393 3.49545 16.998 3.49545H13.0016C12.6603 3.49545 12.3836 3.21883 12.3836 2.87744C12.3836 2.53605 12.6603 2.25943 13.0016 2.25943ZM14.9999 41.7296C13.9076 41.7296 13.0222 40.8441 13.0222 39.7519C13.0222 38.6597 13.9076 37.7743 14.9999 37.7743C16.0921 37.7743 16.9775 38.6597 16.9775 39.7519C16.9775 40.8442 16.092 41.7296 14.9999 41.7296ZM27.9464 34.5195C27.9464 35.1993 27.3902 35.7555 26.7104 35.7555H3.28938C2.60957 35.7555 2.05336 35.1993 2.05336 34.5195V6.95641C2.05336 6.2766 2.60957 5.7204 3.28938 5.7204H26.7104C27.3902 5.7204 27.9464 6.2766 27.9464 6.95641V34.5195Z" fill="#4CAF50"/>
<path d="M23.9408 18.3276L21.4862 16.4351V13.755C21.4862 13.4142 21.2089 13.137 20.8681 13.137H18.7478C18.407 13.137 18.1298 13.4142 18.1298 13.755V13.8472L16.3336 12.4624C15.5859 11.8859 14.4141 11.8859 13.666 12.4624L6.05884 18.3276C5.73439 18.5777 5.67432 19.0434 5.92437 19.3679C6.17441 19.6922 6.64014 19.7523 6.96447 19.5024L14.5716 13.6371C14.7877 13.4705 15.2119 13.4705 15.428 13.6371L23.0351 19.5024C23.17 19.6063 23.3293 19.6566 23.4874 19.6566C23.7095 19.6566 23.9291 19.5572 24.0752 19.3679C24.3253 19.0434 24.2651 18.5778 23.9408 18.3276Z" fill="#4CAF50"/>
<path d="M21.9231 19.508L15.6956 14.412C15.5056 14.2567 15.2585 14.1711 14.9998 14.1711C14.741 14.1711 14.4939 14.2567 14.3041 14.412L8.07669 19.5079C7.74989 19.7752 7.5127 20.2758 7.5127 20.6982V27.6999C7.5127 28.2451 7.9563 28.6888 8.50151 28.6888H12.3875C12.7892 28.6888 12.751 28.2309 12.751 28.2309V24.1309C12.751 23.995 12.8623 23.8837 12.9982 23.8837H17.0016C17.1375 23.8837 17.2488 23.995 17.2488 24.1309V28.1537C17.2488 28.1537 17.2003 28.6888 17.6947 28.6888H21.4983C22.0435 28.6888 22.4871 28.2451 22.4871 27.6999V20.6982C22.487 20.2758 22.2498 19.7752 21.9231 19.508Z" fill="#4CAF50"/>
</svg>
