<svg width="21" height="25" viewBox="0 0 21 25" fill="none" xmlns="http://www.w3.org/2000/svg">
<path d="M17.7761 2.56197C16.0552 0.909975 13.6738 0.00012207 11.0704 0.00012207C7.09361 0.00012207 4.64772 1.63026 3.29616 2.9977C1.63046 4.68292 0.675293 6.92054 0.675293 9.13696C0.675293 11.9198 1.8393 14.0558 3.78858 14.8504C3.91945 14.904 4.05112 14.931 4.18021 14.931C4.59144 14.931 4.91727 14.662 5.03016 14.2303C5.09595 13.9827 5.24843 13.3718 5.31471 13.1066C5.45662 12.5829 5.34196 12.331 5.03249 11.9663C4.46871 11.2993 4.20618 10.5104 4.20618 9.48383C4.20618 6.43449 6.47678 3.19364 10.6851 3.19364C14.0243 3.19364 16.0985 5.09148 16.0985 8.14647C16.0985 10.0743 15.6833 11.8597 14.929 13.1739C14.4049 14.087 13.4833 15.1756 12.0685 15.1756C11.4566 15.1756 10.907 14.9242 10.5602 14.4861C10.2326 14.0719 10.1247 13.5368 10.2564 12.9792C10.4053 12.3491 10.6082 11.6919 10.8046 11.0565C11.1629 9.89603 11.5015 8.79999 11.5015 7.92554C11.5015 6.42981 10.582 5.42481 9.21359 5.42481C7.47452 5.42481 6.11208 7.19114 6.11208 9.44602C6.11208 10.5519 6.40598 11.379 6.53903 11.6966C6.31995 12.6249 5.0179 18.1434 4.77092 19.184C4.62812 19.7915 3.76786 24.5895 5.19174 24.9721C6.79157 25.402 8.22158 20.729 8.36712 20.201C8.48508 19.7715 8.89784 18.1477 9.15078 17.1495C9.92308 17.8934 11.1666 18.3963 12.3766 18.3963C14.6576 18.3963 16.7089 17.3698 18.1528 15.5062C19.5531 13.6986 20.3244 11.1791 20.3244 8.41231C20.3244 6.24928 19.3955 4.11688 17.7761 2.56197Z" fill="#C4C4C4"/>
</svg>
