<svg width="44" height="44" viewBox="0 0 44 44" fill="none" xmlns="http://www.w3.org/2000/svg">
<path d="M18.1328 23.2891H25.8672V25.8672H18.1328V23.2891Z" fill="#4CAF50"/>
<path d="M35.6966 25.8672H28.4453V27.1563C28.4453 27.8686 27.8686 28.4453 27.1562 28.4453H16.8438C16.1314 28.4453 15.5547 27.8686 15.5547 27.1563V25.8672H8.30338C6.63666 25.8672 5.16263 24.8047 4.63492 23.2236L0 9.31653V37.4688C0 39.6011 1.73486 41.336 3.86719 41.336H40.1328C42.2651 41.336 44 39.6011 44 37.4688V9.31754L39.3647 23.2236C38.8374 24.8047 37.3633 25.8672 35.6966 25.8672Z" fill="#4CAF50"/>
<path d="M27.1561 2.66406H16.8436C14.7113 2.66406 12.9764 4.39893 12.9764 6.53125V7.82031H2.21777L7.07962 22.4079C7.25586 22.9352 7.74799 23.2891 8.30322 23.2891H15.5545V22C15.5545 21.2877 16.1313 20.7109 16.8436 20.7109H27.1561C27.8684 20.7109 28.4452 21.2877 28.4452 22V23.2891H35.6965C36.2517 23.2891 36.7438 22.9352 36.9201 22.4079L41.7823 7.82031H31.0233V6.53125C31.0233 4.39893 29.2884 2.66406 27.1561 2.66406ZM15.5545 7.82031V6.53125C15.5545 5.81992 16.1323 5.24219 16.8436 5.24219H27.1561C27.8674 5.24219 28.4452 5.81992 28.4452 6.53125V7.82031H15.5545Z" fill="#4CAF50"/>
</svg>
