<svg width="44" height="36" viewBox="0 0 44 36" fill="none" xmlns="http://www.w3.org/2000/svg">
<path d="M41.9597 9.32935C41.9324 9.30211 41.9052 9.27486 41.8779 9.24762C40.3615 7.73114 38.1548 6.33272 35.6486 5.28843C35.1945 5.09774 34.7314 4.92521 34.2683 4.77083V4.74359C34.2411 2.73676 32.6247 1.12039 30.6179 1.09315L20.8107 0.947858C19.5122 0.929697 18.259 1.43822 17.3419 2.35537L0.987526 18.7279C-0.329175 20.0446 -0.329175 22.1876 0.987526 23.5043L11.8662 34.383C13.1829 35.6997 15.326 35.6997 16.6427 34.383L33.0152 18.0105C33.4874 17.5383 33.8415 16.9844 34.0867 16.376C35.7303 16.8391 37.3285 17.0843 38.736 17.0752C42.223 17.057 43.3762 15.5315 43.7576 14.6234C44.1299 13.7153 44.4024 11.8175 41.9597 9.32935ZM21.7006 18.6189C21.3192 18.8278 20.9287 19.0548 20.5383 19.2546C20.166 19.4453 20.0388 19.3998 19.9026 19.0003C19.6211 18.2012 19.1671 17.5201 18.5405 16.9571C18.3771 16.8118 18.2045 16.6756 17.9957 16.5939C17.2511 16.3033 16.5973 16.7846 16.6881 17.5837C16.7335 17.9833 16.8606 18.3646 17.015 18.737C17.2783 19.3817 17.5598 20.0264 17.7505 20.6984C18.368 22.8414 17.0059 24.9482 14.8538 25.157C14.0728 25.2297 13.3282 25.0662 12.6471 24.6757C12.3475 24.5032 12.1205 24.5214 11.8934 24.7756C11.6664 25.0208 11.4122 25.2478 11.1761 25.4839C10.9672 25.6928 10.7402 25.7019 10.5313 25.493C10.268 25.2478 10.0137 24.9845 9.75948 24.7302C9.54155 24.5032 9.55971 24.2671 9.77765 24.0492C9.95018 23.8766 10.1227 23.695 10.2952 23.5225C10.6766 23.132 10.6766 23.1048 10.3679 22.678C9.96834 22.1331 9.61419 21.5611 9.39626 20.9163C9.22372 20.4169 9.26913 20.2898 9.72316 20.0355C10.0591 19.8448 10.3951 19.6541 10.7402 19.4725C11.1398 19.2636 11.2578 19.309 11.394 19.7358C11.621 20.4623 11.9933 21.107 12.4565 21.7063C12.7561 22.0968 13.1284 22.3874 13.5825 22.569C14.436 22.905 15.217 22.3057 15.1262 21.3976C15.0989 21.0889 15.0081 20.7892 14.8901 20.4986C14.5995 19.754 14.2272 19.0366 14.0365 18.2466C13.7187 16.9753 13.864 15.813 14.8901 14.9049C16.0524 13.8788 17.351 13.8152 18.7221 14.4509C19.2851 14.7142 19.2851 14.7233 19.721 14.2874C19.8663 14.1421 20.0116 13.9968 20.166 13.8515C20.502 13.5337 20.6109 13.5337 20.9469 13.8515C21.0468 13.9514 21.1467 14.0513 21.2466 14.1512C21.9367 14.8413 21.9367 14.8413 21.2466 15.5405C20.7562 16.0309 20.7562 16.0309 21.1648 16.5939C21.4827 17.0298 21.7278 17.4929 21.9185 17.9923C22.0184 18.2648 21.9639 18.4736 21.7006 18.6189ZM41.1242 13.5337C40.8155 14.2692 37.5192 14.914 32.5157 12.8254C31.0447 12.217 29.6825 11.4542 28.5656 10.637C28.5293 10.6824 28.4839 10.7278 28.4476 10.7732C27.3579 11.8629 25.5781 11.8629 24.4884 10.7732C23.3987 9.68349 23.3987 7.90368 24.4884 6.81399C25.5781 5.72431 27.3579 5.72431 28.4476 6.81399C29.1014 7.4678 29.3556 8.35771 29.2376 9.20222C30.3091 9.965 31.5986 10.6642 32.9698 11.2363C33.4601 11.4361 33.9232 11.6177 34.3773 11.7721L34.3228 7.83103C34.4045 7.86735 34.4772 7.8946 34.5589 7.93092C36.7019 8.82083 38.627 10.0376 39.8711 11.2817C39.8893 11.2999 39.9074 11.318 39.9256 11.3362C41.1061 12.5258 41.2241 13.2885 41.1242 13.5337Z" fill="#4CAF50"/>
</svg>
