<svg width="57" height="51" viewBox="0 0 57 51" fill="none" xmlns="http://www.w3.org/2000/svg">
<path d="M27.0812 3.63343C27.0812 4.174 27.0203 4.66325 26.8985 5.10117C26.7834 5.53226 26.6007 5.90176 26.3503 6.20968C26.0998 6.5176 25.7783 6.75709 25.3858 6.92815C25 7.09922 24.5364 7.18475 23.9949 7.18475C23.4196 7.18475 22.9391 7.09922 22.5533 6.92815C22.1675 6.75709 21.8596 6.52102 21.6294 6.21994C21.3993 5.91202 21.2369 5.54594 21.1421 5.1217C21.0474 4.69746 21 4.22874 21 3.71554C21 3.20235 21.0575 2.73363 21.1726 2.30938C21.2876 1.8783 21.467 1.50538 21.7107 1.19062C21.9611 0.875855 22.2792 0.632942 22.665 0.461877C23.0575 0.283969 23.5279 0.195015 24.0761 0.195015C24.6785 0.195015 25.1726 0.28739 25.5584 0.472141C25.9509 0.656891 26.2589 0.906647 26.4822 1.22141C26.7056 1.53617 26.8613 1.90225 26.9492 2.31965C27.0372 2.73705 27.0812 3.17498 27.0812 3.63343ZM25.0711 3.70528C25.0711 3.32893 25.0508 3.01075 25.0102 2.75073C24.9695 2.48387 24.9086 2.26833 24.8274 2.10411C24.7462 1.93988 24.6379 1.82014 24.5025 1.74487C24.3672 1.6696 24.2081 1.63196 24.0254 1.63196C23.8562 1.63196 23.7073 1.6696 23.5787 1.74487C23.4501 1.81329 23.3418 1.92962 23.2538 2.09384C23.1726 2.25122 23.1117 2.45992 23.0711 2.71994C23.0305 2.97312 23.0102 3.28446 23.0102 3.65396C23.0102 4.0782 23.0338 4.42718 23.0812 4.70088C23.1286 4.96774 23.1963 5.17986 23.2843 5.33724C23.3723 5.48778 23.4805 5.59384 23.6091 5.65543C23.7377 5.71017 23.8866 5.73754 24.0558 5.73754C24.2521 5.73754 24.4146 5.6999 24.5431 5.62463C24.6717 5.54252 24.7733 5.41935 24.8477 5.25513C24.9289 5.09091 24.9865 4.88221 25.0203 4.62903C25.0541 4.36901 25.0711 4.06109 25.0711 3.70528ZM35 10.2742C35 10.8148 34.9391 11.304 34.8173 11.7419C34.7022 12.173 34.5195 12.5425 34.269 12.8504C34.0186 13.1584 33.6971 13.3978 33.3046 13.5689C32.9188 13.74 32.4552 13.8255 31.9137 13.8255C31.3384 13.8255 30.8579 13.74 30.4721 13.5689C30.0863 13.3978 29.7783 13.1618 29.5482 12.8607C29.3181 12.5528 29.1557 12.1867 29.0609 11.7625C28.9662 11.3382 28.9188 10.8695 28.9188 10.3563C28.9188 9.84311 28.9763 9.37439 29.0914 8.95015C29.2064 8.51906 29.3858 8.14614 29.6294 7.83138C29.8799 7.51662 30.198 7.27371 30.5838 7.10264C30.9763 6.92473 31.4467 6.83578 31.9949 6.83578C32.5973 6.83578 33.0914 6.92815 33.4772 7.1129C33.8697 7.29765 34.1777 7.54741 34.401 7.86217C34.6244 8.17693 34.78 8.54301 34.868 8.96041C34.956 9.37781 35 9.81574 35 10.2742ZM32.9898 10.346C32.9898 9.9697 32.9695 9.65152 32.9289 9.3915C32.8883 9.12463 32.8274 8.90909 32.7462 8.74487C32.665 8.58065 32.5567 8.4609 32.4213 8.38563C32.286 8.31036 32.1269 8.27273 31.9442 8.27273C31.775 8.27273 31.6261 8.31036 31.4975 8.38563C31.3689 8.45406 31.2606 8.57038 31.1726 8.7346C31.0914 8.89198 31.0305 9.10068 30.9898 9.3607C30.9492 9.61388 30.9289 9.92522 30.9289 10.2947C30.9289 10.719 30.9526 11.0679 31 11.3416C31.0474 11.6085 31.1151 11.8206 31.203 11.978C31.291 12.1285 31.3993 12.2346 31.5279 12.2962C31.6565 12.3509 31.8054 12.3783 31.9746 12.3783C32.1709 12.3783 32.3333 12.3407 32.4619 12.2654C32.5905 12.1833 32.692 12.0601 32.7665 11.8959C32.8477 11.7317 32.9052 11.523 32.9391 11.2698C32.9729 11.0098 32.9898 10.7019 32.9898 10.346ZM24.3096 13.5792C24.2487 13.6613 24.1844 13.7263 24.1168 13.7742C24.0558 13.8289 23.978 13.8734 23.8832 13.9076C23.7885 13.9418 23.6734 13.9658 23.5381 13.9795C23.4027 13.9932 23.2369 14 23.0406 14C22.8173 14 22.6379 13.9863 22.5025 13.9589C22.3739 13.9316 22.2792 13.8905 22.2183 13.8358C22.1641 13.781 22.1404 13.7195 22.1472 13.651C22.1607 13.5758 22.2047 13.4868 22.2792 13.3842L31.6396 0.420821C31.7005 0.345552 31.7614 0.280547 31.8223 0.225806C31.8832 0.171065 31.9611 0.126588 32.0558 0.0923754C32.1574 0.0581623 32.2758 0.0342131 32.4112 0.0205279C32.5465 0.00684262 32.7124 0 32.9086 0C33.132 0 33.308 0.0136852 33.4365 0.0410557C33.5719 0.0684262 33.6667 0.109482 33.7208 0.164223C33.7817 0.218964 33.8054 0.283969 33.7919 0.359238C33.7783 0.434506 33.7377 0.520039 33.6701 0.615836L24.3096 13.5792Z" fill="#4CAF50"/>
<path d="M12.3659 34.8657C12.3659 35.8806 12.1805 36.7711 11.8098 37.5373C11.439 38.3035 10.9366 38.9453 10.3024 39.4627C9.66829 39.9701 8.92683 40.3532 8.07805 40.6119C7.22927 40.8706 6.32195 41 5.3561 41C4.70244 41 4.09268 40.9453 3.52683 40.8358C2.97073 40.7264 2.47805 40.597 2.04878 40.4478C1.61951 40.2886 1.25854 40.1244 0.965854 39.9552C0.682927 39.7861 0.478049 39.6368 0.35122 39.5075C0.22439 39.3781 0.131707 39.194 0.0731707 38.9552C0.0243902 38.7065 0 38.3532 0 37.8955C0 37.5871 0.0097561 37.3284 0.0292683 37.1194C0.0487805 36.9104 0.0780488 36.7413 0.117073 36.6119C0.165854 36.4826 0.22439 36.393 0.292683 36.3433C0.370732 36.2836 0.458537 36.2537 0.556098 36.2537C0.692683 36.2537 0.882927 36.3383 1.12683 36.5075C1.38049 36.6667 1.70244 36.8458 2.09268 37.0448C2.48293 37.2438 2.94634 37.4279 3.48293 37.597C4.02927 37.7562 4.65854 37.8358 5.37073 37.8358C5.83902 37.8358 6.25854 37.7811 6.62927 37.6716C7 37.5522 7.3122 37.3881 7.56585 37.1791C7.82927 36.9701 8.02927 36.7114 8.16585 36.403C8.30244 36.0945 8.37073 35.7512 8.37073 35.3731C8.37073 34.9353 8.25366 34.5622 8.01951 34.2537C7.78537 33.9353 7.47805 33.6567 7.09756 33.4179C6.72683 33.1692 6.30244 32.9403 5.82439 32.7313C5.34634 32.5124 4.85366 32.2836 4.34634 32.0448C3.83902 31.806 3.34634 31.5373 2.86829 31.2388C2.39024 30.9303 1.96098 30.5672 1.58049 30.1493C1.20976 29.7214 0.907317 29.2189 0.673171 28.6418C0.439024 28.0647 0.321951 27.3731 0.321951 26.5672C0.321951 25.6418 0.487805 24.8308 0.819512 24.1343C1.16098 23.4279 1.61463 22.8458 2.18049 22.3881C2.7561 21.9204 3.42927 21.5721 4.2 21.3433C4.98049 21.1144 5.80488 21 6.67317 21C7.12195 21 7.57073 21.0348 8.01951 21.1045C8.46829 21.1741 8.8878 21.2687 9.27805 21.3881C9.66829 21.5075 10.0146 21.6418 10.3171 21.791C10.6195 21.9403 10.8195 22.0647 10.9171 22.1642C11.0146 22.2637 11.078 22.3483 11.1073 22.4179C11.1463 22.4876 11.1756 22.5821 11.1951 22.7015C11.2244 22.8109 11.2439 22.9552 11.2537 23.1343C11.2634 23.3035 11.2683 23.5174 11.2683 23.7761C11.2683 24.0647 11.2585 24.3085 11.239 24.5075C11.2293 24.7065 11.2049 24.8706 11.1659 25C11.1366 25.1294 11.0878 25.2239 11.0195 25.2836C10.961 25.3433 10.878 25.3731 10.7707 25.3731C10.6634 25.3731 10.4927 25.3035 10.2585 25.1642C10.0244 25.0249 9.73659 24.8756 9.39512 24.7164C9.05366 24.5473 8.65854 24.398 8.20976 24.2687C7.76098 24.1294 7.26829 24.0597 6.73171 24.0597C6.3122 24.0597 5.94634 24.1144 5.63415 24.2239C5.32195 24.3234 5.05854 24.4677 4.8439 24.6567C4.63902 24.8358 4.48293 25.0547 4.37561 25.3134C4.27805 25.5721 4.22927 25.8458 4.22927 26.1343C4.22927 26.5622 4.34146 26.9353 4.56585 27.2537C4.8 27.5622 5.10732 27.8408 5.4878 28.0896C5.87805 28.3284 6.31707 28.5572 6.80488 28.7761C7.29268 28.9851 7.79024 29.209 8.29756 29.4478C8.80488 29.6866 9.30244 29.9602 9.79024 30.2687C10.278 30.5672 10.7122 30.9303 11.0927 31.3582C11.4732 31.7761 11.7805 32.2736 12.0146 32.8507C12.2488 33.4179 12.3659 34.0896 12.3659 34.8657Z" fill="#4CAF50"/>
<path d="M30.439 39.194C30.5561 39.5522 30.6293 39.8358 30.6585 40.0448C30.6878 40.2537 30.6488 40.4129 30.5415 40.5224C30.4341 40.6219 30.2439 40.6816 29.9707 40.7015C29.6976 40.7313 29.322 40.7463 28.8439 40.7463C28.3463 40.7463 27.9561 40.7363 27.6732 40.7164C27.4 40.7065 27.1902 40.6816 27.0439 40.6418C26.8976 40.592 26.7951 40.5274 26.7366 40.4478C26.678 40.3682 26.6293 40.2637 26.5902 40.1343L25.3171 36.2537H18.2049L17.0049 40.0299C16.9659 40.1692 16.9122 40.2886 16.8439 40.3881C16.7854 40.4776 16.6829 40.5522 16.5366 40.6119C16.4 40.6617 16.2 40.6965 15.9366 40.7164C15.6829 40.7363 15.3463 40.7463 14.9268 40.7463C14.478 40.7463 14.1268 40.7313 13.8732 40.7015C13.6195 40.6716 13.4439 40.602 13.3463 40.4925C13.2488 40.3731 13.2146 40.209 13.2439 40C13.2732 39.791 13.3463 39.5124 13.4634 39.1642L19.3024 22.0299C19.361 21.8607 19.4293 21.7264 19.5073 21.6269C19.5854 21.5174 19.7073 21.4378 19.8732 21.3881C20.0488 21.3284 20.2878 21.2935 20.5902 21.2836C20.8927 21.2637 21.2927 21.2537 21.7902 21.2537C22.3659 21.2537 22.8244 21.2637 23.1659 21.2836C23.5073 21.2935 23.7707 21.3284 23.9561 21.3881C24.1512 21.4378 24.2878 21.5174 24.3659 21.6269C24.4537 21.7363 24.5268 21.8856 24.5854 22.0746L30.439 39.194ZM21.7463 25.0299H21.7317L19.0537 33.2388H24.4244L21.7463 25.0299Z" fill="#4CAF50"/>
<path d="M43.5073 39.0149C43.5073 39.3134 43.4927 39.5672 43.4634 39.7761C43.4439 39.9751 43.4098 40.1443 43.361 40.2836C43.3122 40.4129 43.2488 40.5075 43.1707 40.5672C43.1024 40.6269 43.0195 40.6567 42.922 40.6567H34.2439C33.922 40.6567 33.6488 40.5622 33.4244 40.3731C33.2098 40.1741 33.1024 39.8557 33.1024 39.4179V21.8806C33.1024 21.7811 33.1317 21.6915 33.1902 21.6119C33.2585 21.5323 33.3659 21.4677 33.5122 21.4179C33.6585 21.3682 33.8537 21.3284 34.0976 21.2985C34.3512 21.2687 34.6634 21.2537 35.0341 21.2537C35.4146 21.2537 35.7268 21.2687 35.9707 21.2985C36.2146 21.3284 36.4098 21.3682 36.5561 21.4179C36.7024 21.4677 36.8049 21.5323 36.8634 21.6119C36.9317 21.6915 36.9659 21.7811 36.9659 21.8806V37.4179H42.922C43.0195 37.4179 43.1024 37.4478 43.1707 37.5075C43.2488 37.5572 43.3122 37.6468 43.361 37.7761C43.4098 37.8955 43.4439 38.0597 43.4634 38.2687C43.4927 38.4677 43.5073 38.7164 43.5073 39.0149Z" fill="#4CAF50"/>
<path d="M57 39.1194C57 39.408 56.9854 39.6517 56.9561 39.8507C56.9366 40.0398 56.9024 40.194 56.8537 40.3134C56.8049 40.4328 56.7415 40.5224 56.6634 40.5821C56.5951 40.6318 56.5171 40.6567 56.4293 40.6567H46.9171C46.5951 40.6567 46.322 40.5622 46.0976 40.3731C45.8829 40.1741 45.7756 39.8557 45.7756 39.4179V22.5821C45.7756 22.1443 45.8829 21.8308 46.0976 21.6418C46.322 21.4428 46.5951 21.3433 46.9171 21.3433H56.3707C56.4585 21.3433 56.5366 21.3682 56.6049 21.4179C56.6732 21.4677 56.7317 21.5572 56.7805 21.6866C56.8293 21.806 56.8634 21.9652 56.8829 22.1642C56.9122 22.3532 56.9268 22.597 56.9268 22.8955C56.9268 23.1741 56.9122 23.4129 56.8829 23.6119C56.8634 23.801 56.8293 23.9552 56.7805 24.0746C56.7317 24.194 56.6732 24.2836 56.6049 24.3433C56.5366 24.393 56.4585 24.4179 56.3707 24.4179H49.6098V29.1343H55.3317C55.4195 29.1343 55.4976 29.1642 55.5659 29.2239C55.6439 29.2736 55.7073 29.3582 55.7561 29.4776C55.8049 29.5871 55.839 29.7413 55.8585 29.9403C55.8878 30.1294 55.9024 30.3632 55.9024 30.6418C55.9024 30.9303 55.8878 31.1692 55.8585 31.3582C55.839 31.5473 55.8049 31.7015 55.7561 31.8209C55.7073 31.9303 55.6439 32.0099 55.5659 32.0597C55.4976 32.1095 55.4195 32.1343 55.3317 32.1343H49.6098V37.5821H56.4293C56.5171 37.5821 56.5951 37.6119 56.6634 37.6716C56.7415 37.7214 56.8049 37.806 56.8537 37.9254C56.9024 38.0448 56.9366 38.204 56.9561 38.403C56.9854 38.592 57 38.8308 57 39.1194Z" fill="#4CAF50"/>
</svg>
