<svg width="44" height="44" viewBox="0 0 44 44" fill="none" xmlns="http://www.w3.org/2000/svg">
<path d="M10.3984 37.4687C10.3984 41.1432 15.3858 43.9999 22 43.9999C28.6142 43.9999 33.6016 41.1432 33.6016 37.4687C33.6016 34.8976 31.0825 32.7263 27.1562 31.6833V33.6015C27.1562 36.4452 24.8437 38.7578 22 38.7578C19.1563 38.7578 16.8438 36.4452 16.8438 33.6015V31.6833C12.9175 32.7263 10.3984 34.8976 10.3984 37.4687Z" fill="#4CAF50"/>
<path d="M22 18.1328C34.1028 18.1328 44 14.0927 44 9.10938C44 4.12601 34.1028 0 22 0C9.89725 0 0 4.12601 0 9.10938C0 14.0927 9.89725 18.1328 22 18.1328Z" fill="#4CAF50"/>
<path d="M0 14.5671V16.8438C0 23.4969 11.4055 25.8672 22 25.8672C32.5945 25.8672 44 23.4969 44 16.8438V14.5671C39.7639 18.6112 30.812 20.711 22 20.711C13.188 20.711 4.23611 18.6112 0 14.5671Z" fill="#4CAF50"/>
<path d="M24.5781 33.6015V28.3989C23.7379 28.4271 22.8819 28.4453 22 28.4453C21.1181 28.4453 20.2621 28.4271 19.4219 28.3989V33.6015C19.4219 35.0255 20.576 36.1796 22 36.1796C23.424 36.1796 24.5781 35.0255 24.5781 33.6015Z" fill="#4CAF50"/>
</svg>
