<svg width="25" height="21" viewBox="0 0 25 21" fill="none" xmlns="http://www.w3.org/2000/svg">
<path d="M25 2.74656C24.08 3.15447 23.0917 3.4302 22.0542 3.55417C23.113 2.91941 23.9263 1.91429 24.3093 0.716536C23.3182 1.30438 22.2206 1.73118 21.0523 1.96116C20.1167 0.964338 18.7837 0.341537 17.3084 0.341537C14.4759 0.341537 12.1794 2.63787 12.1794 5.47037C12.1794 5.87237 12.2248 6.26383 12.3123 6.63927C8.04958 6.4253 4.27025 4.38342 1.74057 1.28025C1.29907 2.03777 1.04609 2.91882 1.04609 3.85881C1.04609 5.63829 1.95155 7.20821 3.32782 8.12798C2.48705 8.10132 1.69618 7.87061 1.00473 7.48643C1.00424 7.50782 1.00424 7.5293 1.00424 7.55093C1.00424 10.036 2.77225 12.1089 5.11853 12.5802C4.68821 12.6973 4.23504 12.7602 3.76727 12.7602C3.43675 12.7602 3.11547 12.728 2.80223 12.6681C3.45497 14.7056 5.3491 16.1887 7.59352 16.23C5.83816 17.6058 3.6266 18.4256 1.22353 18.4256C0.809518 18.4256 0.401268 18.4014 0 18.3538C2.26982 19.8092 4.96585 20.6584 7.86232 20.6584C17.2964 20.6584 22.4554 12.8429 22.4554 6.06505C22.4554 5.84269 22.4503 5.6215 22.4405 5.40148C23.4428 4.67839 24.3124 3.77507 25 2.74656Z" fill="#C4C4C4"/>
</svg>
