<svg width="142" height="30" viewBox="0 0 142 30" fill="none" xmlns="http://www.w3.org/2000/svg">
<path d="M38.0321 5.02486C38.0321 2.98649 36.0504 1.38431 33.9996 2.19074C32.1762 2.90773 30.5632 3.8936 29.1606 5.14835C27.758 6.4031 26.6359 7.96513 25.7943 9.83444C24.9528 11.6782 24.532 13.6627 24.532 15.7881C24.532 19.6804 26.0187 23.0349 28.9923 25.8517C30.4319 27.2027 32.0168 28.2297 33.7468 28.9327C35.9169 29.8145 38.0321 28.0854 38.0321 25.9171C38.0321 24.2501 36.7185 22.8474 35.2581 21.8464C34.9592 21.6414 34.6659 21.4145 34.3783 21.1656C32.7793 19.7316 31.9798 17.8751 31.9798 15.596C31.9798 13.317 32.7793 11.4733 34.3783 10.0649C34.6688 9.80435 34.9659 9.56747 35.2694 9.35425C36.7155 8.33828 38.0321 6.93742 38.0321 5.27161V5.02486Z" fill="#4CAF50"/>
<path d="M41.5386 25.9677C41.5386 24.2813 42.8795 22.8678 44.3548 21.8528C44.6397 21.6567 44.919 21.4405 45.1924 21.204C46.7914 19.8212 47.5909 17.9647 47.5909 15.6344C47.5909 13.3042 46.7774 11.4349 45.1503 10.0265C44.8705 9.78002 44.5847 9.55512 44.2928 9.35178C42.8475 8.34479 41.5386 6.94903 41.5386 5.28929C41.5386 3.1204 43.659 1.39957 45.8259 2.28915C47.4866 2.97089 49.0287 3.94956 50.4522 5.22517C53.5099 7.96513 55.0388 11.3709 55.0388 15.4424C55.0388 19.4883 53.58 22.9453 50.6626 25.8132C49.2097 27.2288 47.5898 28.2919 45.8029 29.0025C43.6331 29.8653 41.5386 28.1281 41.5386 25.9677Z" fill="#4CAF50"/>
<path d="M1.09404 25.6596C0.364679 24.8402 0 24.1104 0 23.4702C0 22.8044 0.603122 21.9338 1.80937 20.8583C2.51067 20.2437 3.25406 19.9364 4.03952 19.9364C4.82498 19.9364 5.91902 20.5766 7.32163 21.857C7.71436 22.2923 8.2754 22.7148 9.00476 23.1245C9.73411 23.5086 10.4074 23.7007 11.0245 23.7007C13.6334 23.7007 14.9378 22.7276 14.9378 20.7815C14.9378 20.1925 14.5731 19.706 13.8438 19.3219C13.1425 18.9121 12.2588 18.6177 11.1928 18.4384C10.1268 18.2592 8.97671 17.9775 7.74241 17.5934C6.50811 17.1837 5.35797 16.7099 4.29199 16.1722C3.226 15.6344 2.32833 14.7894 1.59898 13.6371C0.897671 12.4592 0.547018 11.0508 0.547018 9.41192C0.547018 7.1585 1.45871 5.19956 3.28211 3.5351C5.13355 1.84503 7.64423 1 10.8141 1C12.4973 1 14.0261 1.20486 15.4007 1.61457C16.8033 1.99868 17.7711 2.39559 18.3041 2.8053L19.356 3.5351C20.2256 4.27771 20.6604 4.90508 20.6604 5.41722C20.6604 5.92936 20.3238 6.63355 19.6506 7.5298C18.6968 8.81015 17.715 9.45033 16.7051 9.45033C16.116 9.45033 15.3866 9.19426 14.517 8.68212C14.4329 8.63091 14.2645 8.50287 14.0121 8.29802C13.7877 8.09316 13.5773 7.92671 13.3809 7.79868C12.7918 7.46578 12.0344 7.29934 11.1087 7.29934C10.211 7.29934 9.45359 7.5042 8.83644 7.91391C8.24735 8.29802 7.9528 8.84857 7.9528 9.56557C7.9528 10.257 8.30345 10.8203 9.00476 11.2556C9.73411 11.691 10.6318 11.9854 11.6978 12.1391C12.7638 12.2927 13.9279 12.536 15.1903 12.8689C16.4526 13.1762 17.6168 13.5603 18.6828 14.0212C19.7488 14.4821 20.6324 15.2887 21.3337 16.4411C22.0631 17.5678 22.4277 18.9634 22.4277 20.6278C22.4277 22.2923 22.0631 23.7647 21.3337 25.045C20.6043 26.2998 19.6506 27.2729 18.4724 27.9642C16.2001 29.3214 13.7736 30 11.1928 30C9.87438 30 8.62605 29.8592 7.44786 29.5775C6.26967 29.2702 5.31589 28.8989 4.58654 28.4636C3.09977 27.6441 2.06184 26.8503 1.47274 26.0821L1.09404 25.6596Z" fill="#4CAF50"/>
<path d="M73.3183 9.61832C73.8483 9.77099 74.2806 10.0382 74.6153 10.4198C74.9779 10.7761 75.1592 11.3613 75.1592 12.1756C75.1592 12.9898 74.8942 13.8804 74.3643 14.8473C73.8343 15.8143 73.0673 16.2977 72.0632 16.2977C71.5612 16.2977 71.0731 16.1959 70.599 15.9924C70.1527 15.7888 69.553 15.687 68.8 15.687C68.0469 15.687 67.3357 15.9288 66.6663 16.4122C66.0248 16.8957 65.7041 17.4809 65.7041 18.1679V26.1832C65.7041 26.7684 65.6762 27.2137 65.6204 27.5191C65.5925 27.799 65.467 28.1298 65.2439 28.5115C64.8255 29.173 63.7377 29.5038 61.9806 29.5038C60.6418 29.5038 59.6796 29.2875 59.0939 28.855C58.6476 28.4987 58.3966 27.9517 58.3408 27.2137C58.3408 26.9593 58.3408 26.5903 58.3408 26.1069V12.7099C58.3408 12.1247 58.3548 11.6921 58.3827 11.4122C58.4384 11.1069 58.5639 10.7761 58.7592 10.4198C59.1497 9.73283 60.2374 9.38931 62.0224 9.38931C63.6959 9.38931 64.7418 9.68193 65.1602 10.2672C65.467 10.6743 65.6204 11.0941 65.6204 11.5267C65.7599 11.3486 65.9551 11.1323 66.2061 10.8779C66.485 10.6234 67.0568 10.2799 67.9214 9.84733C68.786 9.41476 69.5391 9.19847 70.1806 9.19847C70.85 9.19847 71.4078 9.23664 71.8541 9.31298C72.3003 9.36387 72.7884 9.46565 73.3183 9.61832Z" fill="#4F4F4F"/>
<path d="M90.9633 1.03053C91.1864 0.648855 91.5629 0.381681 92.0929 0.229009C92.6228 0.0763364 93.3201 0 94.1847 0C95.0772 0 95.7884 0.0763364 96.3184 0.229009C96.8483 0.381681 97.2109 0.648855 97.4061 1.03053C97.6292 1.41221 97.7548 1.75573 97.7826 2.06107C97.8384 2.34097 97.8663 2.77354 97.8663 3.35878V26.145C97.8663 26.7303 97.8384 27.1756 97.7826 27.4809C97.7548 27.7608 97.6292 28.0789 97.4061 28.4351C96.9878 29.1221 95.8024 29.4657 93.85 29.4657C91.9255 29.4657 90.8517 28.8422 90.6286 27.5954C89.4572 28.8168 87.8255 29.4275 85.7337 29.4275C83.2235 29.4275 80.9364 28.4351 78.8725 26.4504C76.8085 24.4402 75.7766 22.112 75.7766 19.4656C75.7766 16.7939 76.8085 14.4529 78.8725 12.4427C80.9643 10.4326 83.2514 9.42748 85.7337 9.42748C87.7976 9.42748 89.4014 10.0636 90.5449 11.3359V3.32061C90.5449 2.73537 90.5589 2.3028 90.5867 2.0229C90.6425 1.71756 90.768 1.38677 90.9633 1.03053ZM84.1857 21.7557C84.9109 22.4427 85.7895 22.7863 86.8214 22.7863C87.8534 22.7863 88.7041 22.4427 89.3735 21.7557C90.0708 21.0687 90.4194 20.3181 90.4194 19.5038C90.4194 18.6641 90.0847 17.888 89.4153 17.1756C88.7738 16.4631 87.8953 16.1069 86.7796 16.1069C85.664 16.1069 84.7715 16.4631 84.1021 17.1756C83.4327 17.8626 83.098 18.626 83.098 19.4656C83.098 20.3053 83.4606 21.0687 84.1857 21.7557Z" fill="#4F4F4F"/>
<path d="M122.452 17.0611C122.452 18.6132 122.02 19.771 121.155 20.5343C120.318 21.2723 119.384 21.6412 118.352 21.6412H108.437C108.437 22.3537 108.897 22.9517 109.817 23.4351C110.738 23.9186 111.658 24.1603 112.578 24.1603C114.196 24.1603 115.465 24.0076 116.386 23.7023L116.846 23.5496C117.515 23.2697 118.073 23.1298 118.519 23.1298C119.412 23.1298 120.179 23.7023 120.82 24.8473C121.183 25.5344 121.364 26.1196 121.364 26.6031C121.364 28.8677 118.394 30 112.453 30C110.389 30 108.548 29.6819 106.93 29.0458C105.341 28.3842 104.1 27.5191 103.207 26.4504C101.45 24.3893 100.571 22.0865 100.571 19.542C100.571 16.3359 101.701 13.7786 103.96 11.8702C106.247 9.93639 109.092 8.96947 112.495 8.96947C116.372 8.96947 119.217 10.2163 121.029 12.7099C121.978 14.0331 122.452 15.4835 122.452 17.0611ZM113.624 18.1679C114.684 18.1679 115.214 17.7608 115.214 16.9466C115.214 16.3613 114.963 15.8906 114.461 15.5344C113.987 15.1781 113.29 15 112.369 15C111.477 15 110.584 15.3435 109.692 16.0305C108.799 16.6921 108.353 17.4046 108.353 18.1679H113.624Z" fill="#4F4F4F"/>
<path d="M140.159 9.61832C140.689 9.77099 141.121 10.0382 141.456 10.4198C141.818 10.7761 142 11.3613 142 12.1756C142 12.9898 141.735 13.8804 141.205 14.8473C140.675 15.8143 139.908 16.2977 138.904 16.2977C138.402 16.2977 137.914 16.1959 137.44 15.9924C136.993 15.7888 136.394 15.687 135.641 15.687C134.888 15.687 134.176 15.9288 133.507 16.4122C132.865 16.8957 132.545 17.4809 132.545 18.1679V26.1832C132.545 26.7684 132.517 27.2137 132.461 27.5191C132.433 27.799 132.308 28.1298 132.084 28.5115C131.666 29.173 130.578 29.5038 128.821 29.5038C127.482 29.5038 126.52 29.2875 125.934 28.855C125.488 28.4987 125.237 27.9517 125.181 27.2137C125.181 26.9593 125.181 26.5903 125.181 26.1069V12.7099C125.181 12.1247 125.195 11.6921 125.223 11.4122C125.279 11.1069 125.405 10.7761 125.6 10.4198C125.99 9.73283 127.078 9.38931 128.863 9.38931C130.536 9.38931 131.582 9.68193 132.001 10.2672C132.308 10.6743 132.461 11.0941 132.461 11.5267C132.6 11.3486 132.796 11.1323 133.047 10.8779C133.326 10.6234 133.897 10.2799 134.762 9.84733C135.627 9.41476 136.38 9.19847 137.021 9.19847C137.691 9.19847 138.248 9.23664 138.695 9.31298C139.141 9.36387 139.629 9.46565 140.159 9.61832Z" fill="#4F4F4F"/>
</svg>
